<svg fill="none" xmlns="http://www.w3.org/2000/svg" viewBox="0 0 220 80">
  <path d="M73.787 34.712c-.04-6.429.062-11.714.022-17.985 0-.454 0-1.235-.035-2.206V5.47c-.062-2.529-2.15-4.776-4.482-4.849C60.698.354 44.837 0 41.31 0l-4.9.036C16.165.186-.135 18.08 0 40.011v.55C.138 62.49 16.658 80.15 36.904 80h.506c13.195-.095 24.745-7.755 31.127-19.157a41.53 41.53 0 004.477-12.096c.57-2.87.85-5.796.831-8.727l-.057-5.308zM55.86 47.222H36.577a6.418 6.418 0 01-4.516-1.794 6.832 6.832 0 01-2.081-4.508 6.813 6.813 0 01.389-2.641 6.655 6.655 0 011.368-2.267 6.414 6.414 0 012.125-1.524 6.24 6.24 0 012.535-.534h19.568c1.089 0 2.133.446 2.903 1.24a4.311 4.311 0 011.205 2.997v4.68a4.456 4.456 0 01-.316 1.668 4.344 4.344 0 01-.913 1.414 4.19 4.19 0 01-1.37.942 4.08 4.08 0 01-1.614.327zM66.358 21.93H39.146a17.574 17.574 0 00-6.92 1.413 18.038 18.038 0 00-5.867 4.04 18.7 18.7 0 00-3.922 6.053 19.172 19.172 0 00-1.377 7.142c0 2.45.468 4.877 1.377 7.14a18.694 18.694 0 003.922 6.053 18.031 18.031 0 005.868 4.04 17.569 17.569 0 006.919 1.41h4.574a3.98 3.98 0 012.804 1.167 4.238 4.238 0 011.238 2.847c.106 2.87.185 5.79.053 5.971-.334.454-6.553.454-9.201.454h-.387c-7.417.05-14.55-2.944-19.829-8.323-5.279-5.38-8.272-12.703-8.32-20.36v-.4c-.049-7.65 2.847-15.008 8.05-20.458 5.202-5.449 12.287-8.544 19.699-8.605l3.742-.027c2.692 0 14.805.254 21.354.454.872.02 1.705.377 2.335 1a3.655 3.655 0 011.07 2.364v1.512l.03 5.113zm23.189 9.01a1.033 1.033 0 01-.409-.111 1.064 1.064 0 01-.334-.267 1.237 1.237 0 01-.282-.812V8.722c-.005-.155.023-.31.082-.453a1.124 1.124 0 011.071-.695H99.79a1.033 1.033 0 01.778.327c.204.22.317.513.317.817 0 .304-.113.597-.317.817a1.028 1.028 0 01-.778.336h-9.017v8.291h6.646a.965.965 0 01.796.318 1.134 1.134 0 01.321.813 1.097 1.097 0 01-.687 1.037c-.137.055-.283.08-.43.075h-6.668v8.25h9.017a1.067 1.067 0 01.775.33 1.13 1.13 0 01.32.801 1.158 1.158 0 01-.317.83.964.964 0 01-.778.322H89.547z" fill="#5BAD46"/>
  <path d="M99.813 31.393H89.516a1.424 1.424 0 01-.573-.147 1.467 1.467 0 01-.47-.37 1.686 1.686 0 01-.39-1.113V8.723a1.579 1.579 0 01.118-.635c.083-.2.206-.38.36-.528.3-.296.7-.46 1.114-.454H99.79a1.456 1.456 0 011.091.454 1.572 1.572 0 01.439 1.14 1.616 1.616 0 01-.439 1.13 1.51 1.51 0 01-.503.343c-.188.078-.39.116-.593.111H91.21v7.424h6.206a1.408 1.408 0 011.108.454 1.62 1.62 0 01.44 1.13c.004.208-.033.414-.108.606a1.524 1.524 0 01-1.436.966h-6.228V28.2h8.577a1.488 1.488 0 011.088.462 1.618 1.618 0 01.447 1.123c.003.212-.034.423-.109.62a1.608 1.608 0 01-.331.529 1.444 1.444 0 01-.48.341 1.404 1.404 0 01-.571.117zm-10.248-.908h10.204a.547.547 0 00.44-.181.707.707 0 00.193-.518.649.649 0 00-.189-.481.62.62 0 00-.466-.195H90.29v-9.177h7.086a.641.641 0 00.677-.645.666.666 0 00-.197-.495.551.551 0 00-.462-.181h-7.082V9.417h9.457a.589.589 0 00.44-.2.67.67 0 00.193-.495.687.687 0 00-.183-.493.645.645 0 00-.472-.201H89.63a.713.713 0 00-.52.2.628.628 0 00-.193.494V29.75a.773.773 0 00.176.517.608.608 0 00.47.218zm28.945-12.963l7.917-9.494a1.092 1.092 0 011.184-.324c.139.05.266.13.373.233.213.208.342.492.361.794.017.155-.001.312-.051.46a1.03 1.03 0 01-.24.39l-8.075 9.694 8.168 9.748a1.13 1.13 0 01.308.845c-.006.15-.043.296-.108.43a1.03 1.03 0 01-.271.346 1.09 1.09 0 01-.802.305 1.08 1.08 0 01-.772-.378l-7.992-9.535-7.917 9.535a1.062 1.062 0 01-.338.27c-.129.065-.27.101-.414.107a1.148 1.148 0 01-.803-.303 1.223 1.223 0 01-.389-.786 1.084 1.084 0 01.299-.836l8.102-9.748-8.142-9.74a1.172 1.172 0 01-.281-.845 1.154 1.154 0 01.387-.799 1.002 1.002 0 01.805-.281 1.1 1.1 0 01.752.39l7.939 9.522z" fill="#5BAD46"/>
  <path d="M109.766 31.402a1.58 1.58 0 01-1.062-.445 1.68 1.68 0 01-.504-1.062 1.576 1.576 0 01.095-.642 1.53 1.53 0 01.345-.543l7.838-9.435-7.899-9.436a1.63 1.63 0 01-.223-1.775c.092-.19.22-.357.377-.495.15-.144.329-.254.524-.321a1.4 1.4 0 01.606-.07c.401.04.772.234 1.038.545l7.609 9.118 7.57-9.081a1.53 1.53 0 011.033-.568 1.462 1.462 0 011.135.409c.295.284.476.674.506 1.09a1.55 1.55 0 01-.409 1.203l-7.785 9.38 7.917 9.45a1.576 1.576 0 01.413 1.171 1.556 1.556 0 01-.532 1.099 1.494 1.494 0 01-1.126.404 1.438 1.438 0 01-.58-.149 1.49 1.49 0 01-.476-.373l-7.666-9.154-7.587 9.154a1.496 1.496 0 01-.476.38 1.434 1.434 0 01-.584.151l-.097-.005zm8.744-11.074l8.326 9.948a.636.636 0 00.932.032.64.64 0 00.193-.735.689.689 0 00-.153-.236l-8.41-10.062 8.309-9.99a.601.601 0 00.189-.508.764.764 0 00-.229-.509.577.577 0 00-.466-.168.615.615 0 00-.44.232l-8.251 9.885-8.273-9.908a.675.675 0 00-.44-.24.558.558 0 00-.471.172.66.66 0 00-.242.49.653.653 0 00.172.509l8.383 10.035-8.357 10.043a.613.613 0 00-.193.509.651.651 0 00.233.454.666.666 0 00.493.195.617.617 0 00.439-.222l8.256-9.926zm36.752-8.595a1.133 1.133 0 01-.316.803 1.147 1.147 0 01-.805.341.951.951 0 01-.77-.322 9.45 9.45 0 00-3.079-2.134 9.052 9.052 0 00-3.518-.713 8.777 8.777 0 00-3.625.735 9.31 9.31 0 00-2.942 2.043 9.743 9.743 0 00-2.527 4.91 9.929 9.929 0 00.521 5.534 9.663 9.663 0 001.927 3.047 9.123 9.123 0 002.916 2.088 8.678 8.678 0 003.668.777 9.273 9.273 0 003.519-.636 8.787 8.787 0 003.079-2.12c.213-.215.498-.335.796-.336a1.038 1.038 0 01.774.3c.109.103.195.23.252.373.057.142.083.295.078.448a1.15 1.15 0 01-.313.804 11.081 11.081 0 01-3.835 2.638 11.483 11.483 0 01-4.35.849 10.777 10.777 0 01-3.039-.454 11.278 11.278 0 01-2.74-1.194 11.036 11.036 0 01-2.318-1.817 11.999 11.999 0 01-2.956-5.321 12.267 12.267 0 01.005-6.134 12.3 12.3 0 011.125-2.811 11.884 11.884 0 011.76-2.425 11.053 11.053 0 012.269-1.925 11.01 11.01 0 015.947-1.698c1.491.003 2.966.312 4.341.908 1.43.61 2.727 1.51 3.813 2.647a1.115 1.115 0 01.343.795z" fill="#5BAD46"/>
  <path d="M146.712 31.63a11.28 11.28 0 01-3.158-.455 11.997 11.997 0 01-2.846-1.244 11.682 11.682 0 01-2.406-1.925 12.242 12.242 0 01-1.856-2.502 12.845 12.845 0 01-1.192-2.942 12.81 12.81 0 01-.439-3.278 12.52 12.52 0 01.404-3.179 12.639 12.639 0 012.952-5.448 11.605 11.605 0 0110.041-3.66 11.775 11.775 0 016.998 3.578 1.58 1.58 0 01.492 1.158c.002.417-.156.82-.44 1.117a1.576 1.576 0 01-1.117.481 1.375 1.375 0 01-.595-.104 1.415 1.415 0 01-.5-.35 9.067 9.067 0 00-2.938-2.025 8.542 8.542 0 00-6.712-.001c-2.15.915-3.861 2.672-4.759 4.887a9.48 9.48 0 00-.026 7.037 9.285 9.285 0 001.838 2.91 8.77 8.77 0 002.78 1.99 8.41 8.41 0 003.585.735 8.91 8.91 0 003.25-.608 8.343 8.343 0 002.938-2.012 1.56 1.56 0 011.1-.454 1.468 1.468 0 011.086.423 1.54 1.54 0 01.466 1.162 1.597 1.597 0 01-.44 1.117 11.607 11.607 0 01-3.984 2.724 12.004 12.004 0 01-4.522.867zm.053-23.784a10.558 10.558 0 00-3.048.427c-.939.277-1.838.682-2.674 1.203a10.931 10.931 0 00-2.2 1.844 11.686 11.686 0 00-2.757 5.026 11.842 11.842 0 000 5.97c.255.954.628 1.87 1.108 2.725a11.073 11.073 0 006.598 5.235c.95.276 1.933.415 2.92.414a11.223 11.223 0 004.192-.818 10.762 10.762 0 003.685-2.538.664.664 0 00.139-.226.699.699 0 00.042-.264.62.62 0 00-.189-.482.61.61 0 00-.471-.177.698.698 0 00-.497.214 9.273 9.273 0 01-3.241 2.211 9.84 9.84 0 01-3.664.668 9.15 9.15 0 01-3.844-.813 9.735 9.735 0 01-3.053-2.189 10.274 10.274 0 01-2.019-3.178 10.434 10.434 0 01.031-7.746c.979-2.404 2.829-4.317 5.155-5.331a9.22 9.22 0 013.769-.786 9.472 9.472 0 013.677.754 9.94 9.94 0 013.237 2.234.526.526 0 00.44.19.716.716 0 00.51-.213.672.672 0 00.181-.476.677.677 0 00-.207-.482 11.221 11.221 0 00-3.668-2.547 10.642 10.642 0 00-4.152-.849zm18.939 23.094a1.026 1.026 0 01-.743-.378 1.215 1.215 0 01-.282-.812V8.722a1.13 1.13 0 01.079-.453 1.13 1.13 0 011.069-.696h10.116a1.056 1.056 0 01.779.327 1.198 1.198 0 010 1.635c-.1.11-.221.196-.355.254a1.003 1.003 0 01-.424.082h-9.016v8.291h6.65a.962.962 0 01.792.318 1.142 1.142 0 01.321.813 1.075 1.075 0 01-.321.795 1.09 1.09 0 01-.365.242c-.136.054-.281.08-.427.075h-6.672v8.25h9.03a1.02 1.02 0 01.778.332 1.11 1.11 0 01.321.8 1.16 1.16 0 01-.321.83.965.965 0 01-.778.322h-10.231z" fill="#5BAD46"/>
  <path d="M175.97 31.393h-10.301a1.432 1.432 0 01-.573-.148 1.48 1.48 0 01-.47-.37 1.689 1.689 0 01-.387-1.112V8.723a1.542 1.542 0 01.475-1.162c.299-.297.699-.46 1.113-.455h10.116a1.458 1.458 0 011.091.454 1.652 1.652 0 01.32 1.731c-.116.29-.311.538-.562.714a1.52 1.52 0 01-.849.28h-8.576v7.423h6.21a1.382 1.382 0 011.108.454 1.581 1.581 0 01.44 1.13 1.545 1.545 0 01-.944 1.46 1.47 1.47 0 01-.595.112h-6.241V28.2h8.59a1.525 1.525 0 011.089.461 1.621 1.621 0 01.45 1.123 1.64 1.64 0 01-.44 1.15 1.44 1.44 0 01-.486.344c-.183.079-.38.118-.578.114zm-10.248-.908h10.213a.548.548 0 00.439-.181.691.691 0 00.198-.518.7.7 0 00-.193-.48.65.65 0 00-.466-.197h-9.457v-9.176h7.09a.638.638 0 00.626-.398.63.63 0 00.047-.247.671.671 0 00-.193-.495.544.544 0 00-.467-.181h-7.094V9.417h9.47a.59.59 0 00.439-.2.723.723 0 00.196-.497.723.723 0 00-.196-.497.622.622 0 00-.466-.195h-10.09a.684.684 0 00-.514.2.63.63 0 00-.194.494V29.75a.773.773 0 00.172.517.61.61 0 00.44.218zm23.196-1.848h8.665a1.062 1.062 0 01.776.33 1.128 1.128 0 01.319.8 1.164 1.164 0 01-.316.832.978.978 0 01-.779.322h-9.773a1.048 1.048 0 01-.787-.331 1.094 1.094 0 01-.33-.804V8.722a1.12 1.12 0 01.33-.821 1.056 1.056 0 01.787-.327 1.074 1.074 0 01.787.327c.107.106.19.234.246.375.056.142.083.294.08.446l-.005 19.915z" fill="#5BAD46"/>
  <path d="M197.627 31.393h-9.817a1.475 1.475 0 01-.592-.112 1.516 1.516 0 01-.503-.342 1.577 1.577 0 01-.462-1.13V8.722a1.575 1.575 0 01.462-1.144 1.54 1.54 0 011.099-.465 1.541 1.541 0 011.437.99c.075.196.111.408.103.62v19.46h8.225a1.493 1.493 0 011.086.463c.143.147.256.322.333.515.077.192.116.399.116.607a1.639 1.639 0 01-.44 1.149 1.41 1.41 0 01-1.047.476zM187.81 8.028a.635.635 0 00-.484.2.65.65 0 00-.193.494v21.082a.636.636 0 00.193.481.656.656 0 00.484.2h9.778a.559.559 0 00.439-.181.719.719 0 00.194-.518.664.664 0 00-.402-.63.611.611 0 00-.253-.046h-9.105V8.721a.666.666 0 00-.651-.694zm21.992 20.609h8.664c.291 0 .569.12.775.331.205.212.321.5.321.8a1.15 1.15 0 01-.321.83.966.966 0 01-.775.322h-9.781a1.057 1.057 0 01-.788-.33 1.107 1.107 0 01-.325-.804V8.722a1.132 1.132 0 01.325-.821 1.07 1.07 0 01.788-.327 1.076 1.076 0 01.787.327 1.12 1.12 0 01.33.822v19.914z" fill="#5BAD46"/>
  <path d="M218.51 31.393h-9.825a1.5 1.5 0 01-1.091-.454 1.526 1.526 0 01-.462-1.13V8.722a1.565 1.565 0 01.117-.623c.081-.198.202-.375.354-.52a1.54 1.54 0 011.099-.466 1.541 1.541 0 011.435.99c.076.197.111.408.105.62v19.46h8.224a1.495 1.495 0 011.087.463 1.615 1.615 0 01.448 1.122 1.618 1.618 0 01-.439 1.149 1.43 1.43 0 01-.477.352 1.39 1.39 0 01-.575.124zm-9.825-23.365a.637.637 0 00-.48.2.65.65 0 00-.193.494v21.082a.651.651 0 00.193.482.637.637 0 00.48.2h9.781a.56.56 0 00.462-.182.694.694 0 00.149-.238.738.738 0 00.045-.28.68.68 0 00-.19-.481.641.641 0 00-.466-.195h-9.104V8.721a.655.655 0 00-.198-.495.62.62 0 00-.479-.2z" fill="#5BAD46"/>
  <path d="M88.698 60.267a.759.759 0 01-.554-.277.926.926 0 01-.211-.604V43.744a.831.831 0 01.25-.622.864.864 0 01.607-.236h7.535a.766.766 0 01.576.245.834.834 0 01.237.613.863.863 0 01-.237.604.773.773 0 01-.576.25H89.59v6.152h4.948a.722.722 0 01.59.236.832.832 0 01.237.604.813.813 0 01-.827.83H89.59v6.153h6.734a.783.783 0 01.578.243.834.834 0 01.235.597.873.873 0 01-.237.618.729.729 0 01-.576.236h-7.627z" fill="#7D7D7D"/>
  <path d="M96.325 60.725h-7.662a1.173 1.173 0 01-.47-.136 1.207 1.207 0 01-.379-.318 1.36 1.36 0 01-.321-.908v-15.62c-.004-.178.03-.355.097-.52.067-.164.168-.312.294-.433.247-.234.571-.362.906-.358h7.535a1.219 1.219 0 01.879.377 1.338 1.338 0 01.366.935 1.307 1.307 0 01-.762 1.195 1.194 1.194 0 01-.479.103h-6.298v5.245h4.508c.168-.01.336.019.493.083.156.064.297.163.413.289a1.325 1.325 0 01.267 1.401 1.249 1.249 0 01-.276.415 1.238 1.238 0 01-.88.368h-4.525v5.276h6.294a1.21 1.21 0 01.889.376 1.322 1.322 0 01.365.918 1.35 1.35 0 01-.361.935 1.177 1.177 0 01-.408.288 1.171 1.171 0 01-.485.09zm-7.618-.908h7.618a.304.304 0 00.264-.1.407.407 0 00.11-.3.392.392 0 00-.107-.276.369.369 0 00-.267-.114H89.15v-7.06h5.388a.376.376 0 00.286-.11.35.35 0 00.101-.267.407.407 0 00-.11-.286.295.295 0 00-.26-.1H89.15v-7.06h7.174a.35.35 0 00.264-.114.396.396 0 00.11-.286.388.388 0 00-.11-.29.33.33 0 00-.264-.114H88.79a.432.432 0 00-.307.118.345.345 0 00-.11.286v15.642a.463.463 0 00.105.309.328.328 0 00.238.118l-.01.004z" fill="#7E7E7E"/>
  <path d="M107.022 46.314l-1.381-2.04a.768.768 0 01-.15-.412.95.95 0 01.299-.813.583.583 0 01.405-.15h.066a1.3 1.3 0 01.259.082h.027a.107.107 0 00.052.032c.021.007.039.02.053.036l.053.027a.364.364 0 01.075.068l.07.082.04.068 9.227 13.554V43.744a.844.844 0 011.158-.797.777.777 0 01.267.188.867.867 0 01.233.609v15.683a.85.85 0 01-.189.54.808.808 0 01-.483.286.682.682 0 01-.159 0 .816.816 0 01-.616-.254l-.052-.082-.04-.04-9.214-13.563v13.104a.825.825 0 01-1.412.599.83.83 0 01-.247-.6V43.754a.836.836 0 01.063-.324.796.796 0 01.184-.271.792.792 0 01.585-.245h.066c.089.015.176.043.259.082h.027a.107.107 0 00.052.031c.021.007.039.02.053.037.01 0 .02.003.029.008a.774.774 0 01.257.305.86.86 0 01.084.377v2.56z" fill="#7D7D7D"/>
  <path d="M116.927 60.72a1.251 1.251 0 01-.928-.39l-.141-.181-8.397-12.387v11.665a1.282 1.282 0 01-.373.908 1.3 1.3 0 01-.893.36c-.331 0-.65-.13-.893-.36a1.246 1.246 0 01-.28-.414 1.285 1.285 0 01-.098-.494V43.753a1.284 1.284 0 01.378-.908 1.24 1.24 0 01.879-.373h.15c.09.017.178.041.264.073h.097l.096.082.058.031a.536.536 0 01.123.082l.044.036c.063.054.121.115.171.182a.863.863 0 01.137.177l8.356 12.26V43.744a1.287 1.287 0 01.37-.908 1.25 1.25 0 01.417-.29 1.21 1.21 0 01.493-.096 1.18 1.18 0 01.906.395c.227.244.353.57.352.908v15.683c.003.308-.103.607-.299.84a1.234 1.234 0 01-.734.454 1.278 1.278 0 01-.255-.01zm-.282-1.007c.078.07.179.106.282.1h.07a.385.385 0 00.325-.386V43.744a.414.414 0 00-.109-.295.39.39 0 00-.669.286v14.53l-9.083-13.313v1.239l9.184 13.522zm-10.842-14.394v14.108a.376.376 0 00.11.272.39.39 0 00.559 0 .34.34 0 00.11-.272V46.464l-.779-1.145zm.387-1.952a.127.127 0 00-.105.036.45.45 0 00-.128.182.657.657 0 00-.031.245.36.36 0 00.062.177l.594.876v-1.13a.425.425 0 00-.027-.15l-.052-.082h-.027l-.088-.086a.9.9 0 00-.145-.05l-.053-.018z" fill="#7E7E7E"/>
  <path d="M127.214 60.267a.773.773 0 01-.554-.277.927.927 0 01-.207-.604V43.744a.836.836 0 01.247-.622.865.865 0 01.607-.236h7.512a.758.758 0 01.576.245.854.854 0 01.238.613.868.868 0 01-.238.604.761.761 0 01-.576.25h-6.712v6.152h4.948a.733.733 0 01.594.236.835.835 0 01.233.604.815.815 0 01-.056.32.812.812 0 01-.771.51h-4.948v6.153h6.712a.759.759 0 01.576.24.823.823 0 01.238.6.853.853 0 01-.5.802.708.708 0 01-.314.052h-7.605z" fill="#7D7D7D"/>
  <path d="M134.85 60.725h-7.671a1.188 1.188 0 01-.469-.137 1.233 1.233 0 01-.38-.317 1.352 1.352 0 01-.316-.908v-15.62a1.27 1.27 0 01.391-.953c.246-.233.568-.361.902-.358h7.512a1.219 1.219 0 01.88.377c.233.248.363.58.363.926 0 .345-.13.678-.363.926a1.19 1.19 0 01-.88.39h-6.272v5.245h4.508a1.166 1.166 0 01.906.372 1.322 1.322 0 01.267 1.401 1.24 1.24 0 01-.275.415 1.23 1.23 0 01-.88.368h-4.526v5.267h6.272a1.212 1.212 0 01.889.376 1.29 1.29 0 01.365.918 1.38 1.38 0 01-.09.505c-.062.16-.154.307-.271.43a1.152 1.152 0 01-.862.377zm-7.618-.908h7.587a.3.3 0 00.264-.1.409.409 0 00.11-.3.357.357 0 00-.106-.277.35.35 0 00-.268-.108h-7.152v-7.065h5.388a.375.375 0 00.365-.232.358.358 0 00.022-.145.373.373 0 00-.11-.286.288.288 0 00-.259-.1h-5.406v-7.06h7.152a.342.342 0 00.264-.114.396.396 0 00.11-.286.382.382 0 00-.106-.29.332.332 0 00-.268-.114h-7.512a.431.431 0 00-.308.118.339.339 0 00-.085.13.345.345 0 00-.021.156v15.642a.469.469 0 00.101.309.33.33 0 00.238.118v.004z" fill="#7E7E7E"/>
  <path d="M154.101 47.857a4.99 4.99 0 01-.294 1.73 4.807 4.807 0 01-2.072 2.507 4.665 4.665 0 01-1.579.595l3.813 6.302a.838.838 0 01.066.695.895.895 0 01-.42.48.854.854 0 01-.622.069.85.85 0 01-.484-.4l-4.196-7.051h-2.775v6.643a.826.826 0 01-1.412.6.811.811 0 01-.246-.6V43.73a.816.816 0 01.246-.608.823.823 0 01.585-.236h4.42a4.955 4.955 0 011.944.38 4.837 4.837 0 012.639 2.62 4.95 4.95 0 01.387 1.971zm-8.563-3.287v6.507h3.606a3.304 3.304 0 002.362-.981c.289-.305.519-.664.678-1.058a3.304 3.304 0 000-2.525 3.297 3.297 0 00-.695-1.026 3.306 3.306 0 00-1.056-.685 3.42 3.42 0 00-1.319-.25l-3.576.018z" fill="#7D7D7D"/>
  <path d="M153.23 60.73a1.284 1.284 0 01-1.099-.663l-4.064-6.81h-2.089v6.188a1.302 1.302 0 01-.374.908c-.244.231-.562.36-.893.36-.331 0-.649-.129-.893-.36a1.286 1.286 0 01-.378-.908V43.73a1.26 1.26 0 01.382-.935 1.25 1.25 0 01.88-.364h4.42a5.484 5.484 0 012.112.414 5.444 5.444 0 011.719 1.14c.491.49.884 1.074 1.157 1.72.389.917.521 1.928.381 2.919-.14.99-.546 1.92-1.173 2.684a5.309 5.309 0 01-1.363 1.163 4.972 4.972 0 01-1.104.5l3.492 5.766a1.305 1.305 0 01.111 1.036 1.257 1.257 0 01-.669.78 1.143 1.143 0 01-.555.177zm-8.132-8.4h3.461l4.328 7.265c.05.099.135.174.238.209a.337.337 0 00.273-.032.37.37 0 00.224-.24.351.351 0 00-.04-.322l-4.143-6.844.638-.122a4.354 4.354 0 001.438-.545c.429-.254.813-.58 1.135-.967a4.448 4.448 0 001.011-2.875 4.501 4.501 0 00-.335-1.75 4.391 4.391 0 00-.984-1.469 4.55 4.55 0 00-1.438-.953 4.653 4.653 0 00-1.782-.345h-4.416a.391.391 0 00-.285.113.355.355 0 00-.082.127.351.351 0 00-.024.15v15.697a.354.354 0 00.114.272.384.384 0 00.555 0 .34.34 0 00.11-.272l.004-7.097zm4.046-.8h-4.046v-7.414h4.007a3.902 3.902 0 011.482.282c.443.179.849.444 1.196.78.335.333.604.73.792 1.167a3.731 3.731 0 010 2.893 3.803 3.803 0 01-.783 1.18 3.74 3.74 0 01-2.648 1.113zm-3.166-.907h3.166c.766.005 1.504-.3 2.054-.85.252-.26.453-.569.594-.908a2.68 2.68 0 00.211-1.058 2.72 2.72 0 00-.813-1.98 2.814 2.814 0 00-.915-.594 3.03 3.03 0 00-1.157-.218h-3.14v5.608z" fill="#7E7E7E"/>
  <path d="M163.179 51.59a7.19 7.19 0 00.541 2.792 6.959 6.959 0 003.647 3.782 6.596 6.596 0 002.705.554 6.695 6.695 0 002.172-.336 5.79 5.79 0 001.782-.971c.523-.423.97-.938 1.319-1.521a6.766 6.766 0 00.783-1.99h-4.051a.762.762 0 01-.58-.253.836.836 0 01-.238-.604.835.835 0 01.238-.59.768.768 0 01.58-.25h4.984a.945.945 0 01.624.245.725.725 0 01.246.608 8.543 8.543 0 01-.796 2.929 7.77 7.77 0 01-4.103 3.896 7.751 7.751 0 01-2.969.563 8.304 8.304 0 01-2.283-.314 8.277 8.277 0 01-2.045-.908 8.682 8.682 0 01-3.053-3.178 9.422 9.422 0 01-.853-2.111 9.011 9.011 0 01-.303-2.352 9.255 9.255 0 01.294-2.32 8.994 8.994 0 012.164-3.915 8.928 8.928 0 011.724-1.398 8.306 8.306 0 015.473-1.142 8.43 8.43 0 014.982 2.6.788.788 0 01.255.6.88.88 0 01-.242.598.816.816 0 01-.9.188.795.795 0 01-.269-.188 6.87 6.87 0 00-2.31-1.575 6.789 6.789 0 00-2.639-.532 6.542 6.542 0 00-2.639.545 6.957 6.957 0 00-3.681 3.76 7.137 7.137 0 00-.559 2.788z" fill="#7D7D7D"/>
  <path d="M170.072 60.898a8.763 8.763 0 01-4.553-1.262 9.125 9.125 0 01-3.219-3.333 9.664 9.664 0 01-.88-2.22 9.673 9.673 0 010-4.909 9.348 9.348 0 012.274-4.114 9.33 9.33 0 011.799-1.47 8.737 8.737 0 015.747-1.223 8.868 8.868 0 015.249 2.707 1.24 1.24 0 01.382.908 1.31 1.31 0 01-.365.908 1.238 1.238 0 01-.879.395c-.341 0-.668-.138-.911-.386a6.463 6.463 0 00-3.333-1.838 6.337 6.337 0 00-3.761.376 6.514 6.514 0 00-3.453 3.524 6.702 6.702 0 00-.515 2.629 6.815 6.815 0 00.502 2.61 6.86 6.86 0 001.355 2.103 6.356 6.356 0 002.097 1.448 6.2 6.2 0 002.477.495 6.33 6.33 0 002.032-.313 5.378 5.378 0 001.649-.908c.483-.39.894-.864 1.214-1.403.243-.405.436-.84.576-1.294h-3.47a1.184 1.184 0 01-.88-.39 1.32 1.32 0 01-.358-.909c0-.34.128-.665.358-.908a1.177 1.177 0 01.88-.386h4.983c.336.003.66.128.915.354a1.216 1.216 0 01.396.972 9.014 9.014 0 01-.844 3.11 8.213 8.213 0 01-7.464 4.727zm0-17.708a7.924 7.924 0 00-4.932 1.732 8.364 8.364 0 00-2.884 4.48 8.742 8.742 0 00-.282 2.201 8.638 8.638 0 00.286 2.23c.19.7.463 1.375.814 2.007a8.39 8.39 0 001.258 1.698c.488.508 1.038.95 1.636 1.312.607.37 1.259.654 1.94.845a7.937 7.937 0 002.164.295 7.291 7.291 0 006.676-4.21 7.914 7.914 0 00.752-2.764.267.267 0 00-.092-.227.518.518 0 00-.352-.132h-4.97a.331.331 0 00-.264.114.36.36 0 00-.114.272.387.387 0 00.114.29.34.34 0 00.264.114h4.605l-.127.558a7.174 7.174 0 01-.836 2.12 6.198 6.198 0 01-1.416 1.645 6.383 6.383 0 01-1.918 1.044 7.172 7.172 0 01-2.309.358 7.107 7.107 0 01-2.877-.59 7.413 7.413 0 01-3.879-4.023 7.894 7.894 0 01-.583-2.98 7.9 7.9 0 01.583-2.982c.758-1.827 2.182-3.273 3.965-4.025a7.113 7.113 0 015.562.012c.918.38 1.753.949 2.454 1.67a.319.319 0 00.277.123.385.385 0 00.274-.12.409.409 0 00.085-.429.304.304 0 00-.091-.114 8.194 8.194 0 00-2.691-1.884 7.862 7.862 0 00-3.106-.627l.014-.013z" fill="#7E7E7E"/>
  <path d="M191.188 50.75l4.917-7.551a.766.766 0 01.241-.205.726.726 0 01.3-.086.795.795 0 01.577.195c.173.131.29.327.325.545a.873.873 0 01-.207.69l-5.326 8.083v7.006a.826.826 0 01-1.408.6.82.82 0 01-.237-.6v-6.993l-5.392-8.082a.848.848 0 01-.198-.622.877.877 0 01.571-.766.805.805 0 01.322-.042.74.74 0 01.567.304l4.948 7.524z" fill="#7D7D7D"/>
  <path d="M191.188 60.72a1.234 1.234 0 01-.892-.375 1.294 1.294 0 01-.366-.918v-6.852l-5.304-7.946a1.317 1.317 0 01-.286-.935c.026-.348.183-.67.437-.9a1.263 1.263 0 011.409-.198c.152.079.286.19.393.326l4.605 7.024 4.587-7.042a1.157 1.157 0 01.849-.454c.319-.024.635.082.88.295a1.3 1.3 0 01.446 1.373c-.049.181-.135.35-.253.493l-5.238 7.941v6.87c-.001.17-.034.338-.099.494-.065.156-.16.297-.28.414a1.234 1.234 0 01-.888.39zm-5.577-17.349a.367.367 0 00-.264.105.416.416 0 00-.136.286.384.384 0 00.092.295l.026.036 5.472 8.2v7.134a.355.355 0 00.11.277.375.375 0 00.545 0 .34.34 0 00.11-.273V52.28l5.406-8.173c.158-.213.141-.322.132-.359a.38.38 0 00-.154-.259.408.408 0 00-.286-.109.292.292 0 00-.216.118l-5.278 8.083-5.295-8.1a.323.323 0 00-.225-.11h-.039z" fill="#7E7E7E"/>
  <path d="M86.411 75.491c0-.17.024-.34.07-.504.093-.292.262-.553.489-.753.11-.1.23-.188.356-.264l-.119-.113h-.022a2.833 2.833 0 01-.18-.21 1.631 1.631 0 01-.159-.254 1.52 1.52 0 01-.118-.29 1.218 1.218 0 01-.044-.313 1.4 1.4 0 01.105-.54c.066-.17.163-.324.286-.455a1.283 1.283 0 01.941-.404 1.24 1.24 0 01.52.11c.157.066.3.165.422.29.12.124.216.273.281.436.067.171.102.355.101.54.007.301-.09.595-.272.83a1.8 1.8 0 01-.8.541l1.367 1.317.646-.776a.267.267 0 01.185-.105.262.262 0 01.203.073.243.243 0 01.092.19.291.291 0 01-.07.214l-.66.78.91.873a.323.323 0 01.123.195.214.214 0 01-.048.172.302.302 0 01-.19.118.222.222 0 01-.188-.068l-.941-.908-.308.368a1.9 1.9 0 01-.933.6 1.588 1.588 0 01-.352.045 1.62 1.62 0 01-.66-.141 1.766 1.766 0 01-.901-.93 1.745 1.745 0 01-.132-.664zm2.89.359L87.7 74.324c-.222.1-.416.256-.563.454a1.095 1.095 0 00-.216.686 1.2 1.2 0 00.093.454 1.217 1.217 0 00.615.658.955.955 0 00.69.064c.083-.022.163-.054.238-.095.077-.036.149-.08.216-.132.064-.048.124-.102.18-.159v-.027l.348-.377zm-1.443-2.111l.132-.041c.129-.035.253-.087.37-.155.098-.058.187-.131.263-.218a.842.842 0 00.154-.263.877.877 0 00-.004-.613.825.825 0 00-.167-.268.822.822 0 00-.26-.181.857.857 0 00-.633-.004.774.774 0 00-.427.449.884.884 0 00-.061.326.62.62 0 00.04.218c.025.072.058.14.096.205.039.065.083.128.132.186.048.054.092.104.132.14l.233.219z" fill="#7D7D7D"/>
  <path d="M88.104 77.466a1.819 1.819 0 01-.747-.158 1.989 1.989 0 01-.603-.427 1.947 1.947 0 01-.417-.636 1.998 1.998 0 01-.146-.754 1.832 1.832 0 01.084-.572c.05-.17.126-.33.224-.477a2.046 2.046 0 01.475-.504 1.662 1.662 0 01-.14-.168 1.823 1.823 0 01-.181-.286 1.725 1.725 0 01-.136-.336 1.34 1.34 0 01-.053-.377 1.655 1.655 0 01.453-1.14 1.527 1.527 0 011.707-.345 1.565 1.565 0 01.818.85c.08.198.12.411.118.626.007.353-.106.697-.32.972-.16.191-.356.346-.577.454l.954.908.497-.6a.49.49 0 01.531-.156.431.431 0 01.169.107.452.452 0 01.167.345.51.51 0 01-.128.377l-.514.658.752.722a.53.53 0 01.189.336.436.436 0 01-.097.35.507.507 0 01-.325.19.426.426 0 01-.37-.122l-.76-.75-.159.191a2.711 2.711 0 01-.303.296c-.112.084-.23.16-.352.227a1.777 1.777 0 01-.392.145 1.578 1.578 0 01-.418.054zm-.088-5.852a1.088 1.088 0 00-.791.336 1.25 1.25 0 00-.238.372 1.173 1.173 0 00-.088.454c0 .085.013.169.035.25.025.085.059.167.102.245.039.078.084.152.136.222.049.066.103.127.163.182l.352.35-.256.15a2.043 2.043 0 00-.325.231 1.803 1.803 0 00-.25.295c-.073.11-.13.232-.168.359-.043.147-.064.3-.062.454 0 .201.04.4.115.586.153.364.434.654.787.812a1.32 1.32 0 001.179-.031 1.731 1.731 0 00.519-.413l.44-.545 1.108 1.049a.048.048 0 00.057-.028l-.048-.054-1.056-1.063.796-.949a.056.056 0 000-.05l-.052-.05a.07.07 0 00-.04.023l-.796.958-1.799-1.73.339-.127a1.58 1.58 0 00.704-.454c.151-.194.23-.437.224-.686a1.169 1.169 0 00-.317-.812 1.088 1.088 0 00-.77-.336zm.066 5.294a1.284 1.284 0 01-.545-.118 1.398 1.398 0 01-.44-.318 1.487 1.487 0 01-.4-1.013 1.355 1.355 0 01.26-.826 1.67 1.67 0 01.65-.508l.132-.06 1.86 1.771-.483.586a1.634 1.634 0 01-.726.445c-.1.029-.204.043-.308.04zm-.44-2.311a1.25 1.25 0 00-.351.313.86.86 0 00-.167.545.935.935 0 00.074.381c.049.12.117.228.203.323.086.09.187.164.299.218.173.082.37.1.554.05a.998.998 0 00.202-.082.968.968 0 00.185-.114c.054-.04.105-.084.154-.131l.185-.232-1.338-1.271zm.137-.604l-.312-.304a1.837 1.837 0 01-.3-.377 1.261 1.261 0 01-.118-.245.85.85 0 01-.053-.296 1.076 1.076 0 01.08-.413 1.02 1.02 0 01.21-.34c.147-.15.333-.253.536-.293.203-.04.413-.018.603.066.121.056.231.135.326.231a1.091 1.091 0 01.29.754 1.046 1.046 0 01-.264.7c-.09.104-.198.193-.316.263-.138.08-.286.14-.44.177l-.242.077zm.233-1.816a.544.544 0 00-.409.172.618.618 0 00-.167.436.37.37 0 00.026.136c.022.058.049.115.08.168a1.682 1.682 0 00.224.282l.132.127h.052c.1-.027.197-.069.286-.123a.96.96 0 00.211-.172.704.704 0 00.12-.196.655.655 0 00-.009-.45.532.532 0 00-.12-.19.558.558 0 00-.44-.177l.014-.013z" fill="#7E7E7E"/>
  <path d="M97.45 74.706v2.193a.275.275 0 01-.078.2.273.273 0 01-.467-.2v-5.19a.266.266 0 01.08-.2.262.262 0 01.193-.082h1.465c.22-.002.438.041.642.128.194.078.372.196.523.345a1.66 1.66 0 010 2.338 1.595 1.595 0 01-.523.34c-.204.087-.422.13-.642.128H97.45zm0-2.725v2.153h1.197c.15 0 .3-.03.44-.087.127-.057.243-.137.343-.236.098-.098.175-.215.229-.345.056-.13.085-.27.083-.413a1.062 1.062 0 00-.664-.99 1.163 1.163 0 00-.44-.082h-1.187z" fill="#7D7D7D"/>
  <path d="M97.178 77.407a.492.492 0 01-.493-.509v-5.19a.509.509 0 01.15-.367.48.48 0 01.343-.14h1.465c.248-.001.495.048.725.145.336.136.624.374.827.681a1.906 1.906 0 01.172 1.768 1.825 1.825 0 01-.41.606c-.17.169-.37.301-.588.391a1.95 1.95 0 01-.726.14h-.972V76.9a.504.504 0 01-.145.363.484.484 0 01-.348.145zm0-5.752a.064.064 0 00-.044 0v5.226l.053.054.053-.054v-2.416h1.412c.192.001.383-.036.563-.109.162-.07.311-.17.44-.295a1.44 1.44 0 00.17-1.808 1.367 1.367 0 00-.637-.512 1.429 1.429 0 00-.558-.11l-1.452.023zm1.47 2.724H97.23V71.74h1.407a1.341 1.341 0 01.937.372 1.323 1.323 0 01.383.926 1.302 1.302 0 01-.114.518 1.361 1.361 0 01-.69.7 1.31 1.31 0 01-.507.108v.014zm-.977-.454h.976a.88.88 0 00.348-.068.95.95 0 00.277-.191.811.811 0 00.18-.272.813.813 0 00.066-.323.825.825 0 00-.523-.776.923.923 0 00-.357-.068h-.967v1.698z" fill="#7E7E7E"/>
  <path d="M106.164 71.618c.329.149.628.362.88.627.255.26.461.569.607.908.15.358.226.745.224 1.135.002.264-.032.527-.101.781-.065.245-.161.48-.286.7a2.75 2.75 0 01-.44.594 2.953 2.953 0 01-.572.454 2.93 2.93 0 01-.677.29 2.68 2.68 0 01-1.513 0 2.796 2.796 0 01-1.245-.744 3.048 3.048 0 01-.44-.595 3.045 3.045 0 010-2.951 2.89 2.89 0 011.012-1.049 2.765 2.765 0 011.429-.4c.387 0 .769.086 1.122.25zm-1.993.527a2.218 2.218 0 00-.725.5 2.3 2.3 0 00-.484.749 2.332 2.332 0 00-.176.908 2.39 2.39 0 00.66 1.657 2.232 2.232 0 002.485.5c.27-.12.516-.288.726-.5a2.392 2.392 0 000-3.315 2.232 2.232 0 00-2.486-.5z" fill="#7D7D7D"/>
  <path d="M105.06 77.466a2.99 2.99 0 01-1.544-.431 3.084 3.084 0 01-.616-.495 3.471 3.471 0 01-.47-.64 3.278 3.278 0 010-3.178 3.084 3.084 0 011.086-1.13 2.89 2.89 0 01.726-.305 3.012 3.012 0 012.005.136c.36.16.689.388.968.672a3.204 3.204 0 01.787 3.07 3.19 3.19 0 01-.307.748 3.065 3.065 0 01-1.826 1.454c-.264.07-.536.103-.809.1zm0-5.852a2.497 2.497 0 00-1.32.367 2.663 2.663 0 00-1.192 1.612 2.833 2.833 0 000 1.435c.061.225.148.442.26.645.115.2.252.384.409.55.154.163.331.304.523.417.196.12.406.21.625.272.455.132.935.132 1.39 0 .219-.06.429-.152.624-.272a2.693 2.693 0 001.102-1.299c.131-.328.198-.68.196-1.035a2.595 2.595 0 00-.207-1.044 2.68 2.68 0 00-1.394-1.435 2.462 2.462 0 00-1.016-.213zm0 5.28a2.462 2.462 0 01-1.759-.754 2.682 2.682 0 01-.533-.817 2.697 2.697 0 01-.193-1.017 2.647 2.647 0 01.193-1.003c.127-.304.308-.582.533-.818a2.453 2.453 0 012.249-.706 2.5 2.5 0 011.828 1.524c.132.316.2.658.198 1.003a2.6 2.6 0 01-.198 1.017 2.6 2.6 0 01-.532.818 2.488 2.488 0 01-.796.549 2.36 2.36 0 01-.986.204h-.004zm0-4.708a1.945 1.945 0 00-.809.168 2.073 2.073 0 00-.651.454 2.206 2.206 0 00-.44.672 2.26 2.26 0 000 1.662c.104.252.253.481.44.676.187.193.408.347.651.454a2.034 2.034 0 001.614 0 2.102 2.102 0 001.106-1.162 2.197 2.197 0 00-.011-1.63 2.145 2.145 0 00-.44-.672 2.042 2.042 0 00-.655-.454 1.925 1.925 0 00-.801-.16l-.004-.008z" fill="#7E7E7E"/>
  <path d="M109.766 71.823a.272.272 0 010-.218.302.302 0 01.154-.15.255.255 0 01.207 0 .271.271 0 01.154.154l1.913 4.586.906-2.152-.941-2.22a.272.272 0 010-.218.279.279 0 01.514.004l.713 1.72.721-1.72a.315.315 0 01.15-.154.281.281 0 01.211 0c.066.03.119.083.149.15a.256.256 0 01.023.108.256.256 0 01-.023.11l-.928 2.215.88 2.157 1.931-4.586a.293.293 0 01.145-.154.281.281 0 01.211 0 .258.258 0 01.145.15.242.242 0 01.025.108.242.242 0 01-.025.11l-2.164 5.18a.287.287 0 01-.114.136.275.275 0 01-.158.041.235.235 0 01-.141-.045.257.257 0 01-.106-.132l-.941-2.27-.941 2.27a.27.27 0 01-.098.13.258.258 0 01-.153.047.301.301 0 01-.163-.04.275.275 0 01-.105-.137l-2.151-5.18z" fill="#7D7D7D"/>
  <path d="M112.159 77.407a.473.473 0 01-.251-.072.5.5 0 01-.202-.245l-2.16-5.177a.474.474 0 010-.4.5.5 0 01.455-.308c.063 0 .126.014.183.04a.483.483 0 01.273.278l1.715 4.086.664-1.58-.88-2.13a.496.496 0 010-.394.493.493 0 01.808-.163.508.508 0 01.112.167l.51 1.235.519-1.235a.533.533 0 01.268-.272.46.46 0 01.379 0c.118.05.213.146.263.268a.46.46 0 010 .4l-.879 2.124.655 1.585 1.729-4.087a.529.529 0 01.259-.272.46.46 0 01.378 0 .488.488 0 01.27.276.508.508 0 01-.006.391l-2.168 5.181a.451.451 0 01-.202.24.473.473 0 01-.277.073.43.43 0 01-.251-.081.483.483 0 01-.189-.232l-.739-1.766-.739 1.766a.489.489 0 01-.189.232.499.499 0 01-.308.072zm1.214-3.228l1.148 2.724.053.041.057-.036 2.186-5.167.057-.277-.084.213c-.048 0-.061 0-.075.036l-2.128 5.063-1.135-2.724.963-2.307c0-.05 0-.059-.031-.068-.03-.009-.061 0-.07.041l-.924 2.198-.914-2.207a.075.075 0 00-.031-.032h-.049l-.026.068.963 2.307-1.143 2.724-2.116-5.067c0-.027 0-.032-.031-.036-.031-.005-.075 0-.079.036v.032l2.164 5.176.062.04.048-.04 1.135-2.738z" fill="#7E7E7E"/>
  <path d="M119.517 77.19a.26.26 0 01-.18-.091.296.296 0 01-.07-.2v-5.176a.253.253 0 01.083-.205.272.272 0 01.198-.082h2.485a.257.257 0 01.194.082.285.285 0 01.079.205.286.286 0 01-.021.108.275.275 0 01-.147.153.255.255 0 01-.105.02h-2.199v2.007h1.636a.261.261 0 01.194.077.286.286 0 01.079.2.272.272 0 01-.079.2.278.278 0 01-.194.077h-1.636v2.034h2.199a.255.255 0 01.194.082.277.277 0 01.079.195.283.283 0 01-.168.267.242.242 0 01-.105.02l-2.516.026z" fill="#7D7D7D"/>
  <path d="M122.046 77.407h-2.542a.486.486 0 01-.334-.172.532.532 0 01-.123-.345v-5.177a.48.48 0 01.154-.372.496.496 0 01.347-.14h2.485a.454.454 0 01.348.15.522.522 0 01.143.36.522.522 0 01-.143.361.496.496 0 01-.352.15h-1.997v1.58h1.416a.43.43 0 01.352.15.493.493 0 01.141.354.5.5 0 01-.305.468.473.473 0 01-.188.036h-1.416v1.58h1.997a.455.455 0 01.347.15.495.495 0 01.145.354.507.507 0 01-.14.363.447.447 0 01-.335.15zm-2.498-5.752a.067.067 0 00-.048 0v5.217a.054.054 0 00-.005.025.05.05 0 00.005.024v.241-.227h2.515c.044 0 .053-.032.053-.059l-.053-.05h-2.436v-2.488h1.856a.046.046 0 00.039 0l.154-.236-.154.159h-1.895v-2.489h2.436l.053-.054-.053-.059-2.467-.005z" fill="#7E7E7E"/>
  <path d="M128.068 73.071c0 .197-.034.392-.102.577-.062.166-.153.32-.268.454-.118.14-.258.26-.413.354-.163.096-.34.164-.524.2l1.263 2.084c.018.033.03.07.034.11a.276.276 0 01-.068.213.26.26 0 01-.09.067.24.24 0 01-.202 0 .282.282 0 01-.158-.131l-1.39-2.33h-.915v2.194a.272.272 0 01-.084.2.27.27 0 01-.447-.092.286.286 0 01-.019-.109V71.71a.27.27 0 01.079-.2.255.255 0 01.194-.082h1.465c.22-.002.438.041.642.128a1.608 1.608 0 01.88.88c.083.2.124.417.123.636zm-2.833-1.085v2.152h1.192c.151 0 .3-.03.44-.086a1.17 1.17 0 00.343-.236 1.07 1.07 0 00.312-.758 1.053 1.053 0 00-.664-.99 1.16 1.16 0 00-.44-.082h-1.183z" fill="#7D7D7D"/>
  <path d="M127.777 77.407a.533.533 0 01-.145 0 .508.508 0 01-.281-.231l-1.32-2.22h-.572v1.965a.495.495 0 01-.149.364.498.498 0 01-.695 0 .494.494 0 01-.145-.364V71.71a.507.507 0 01.149-.368.481.481 0 01.343-.14h1.465c.249-.002.495.048.726.145.265.108.502.28.691.5.189.222.323.486.394.772a1.916 1.916 0 01-.368 1.652 1.85 1.85 0 01-.471.4 1.433 1.433 0 01-.29.14l1.104 1.816a.5.5 0 01.067.2.498.498 0 01-.118.393.488.488 0 01-.165.125.426.426 0 01-.22.063zm-2.819-5.752h-.04v5.226l.053.054a.054.054 0 00.044 0V74.48h1.258l1.456 2.438s.022.032.035.036h.044c.031-.036.035-.045.022-.072l-1.425-2.357.317-.064a1.418 1.418 0 00.8-.472c.21-.252.322-.575.317-.908a1.435 1.435 0 00-.243-.795 1.365 1.365 0 00-.637-.513 1.427 1.427 0 00-.558-.109l-1.443-.008zm1.469 2.724h-1.412V71.74h1.403a1.325 1.325 0 01.937.372c.117.116.212.255.277.409a1.317 1.317 0 01.005 1.022 1.347 1.347 0 01-.691.7c-.163.075-.34.116-.519.121v.014zm-.972-.454h.972a.867.867 0 00.805-.531.836.836 0 00-.18-.922.926.926 0 00-.634-.245h-.963v1.698z" fill="#7E7E7E"/>
  <path d="M130.724 74.306a2.41 2.41 0 00.664 1.657c.208.215.455.384.726.5.278.123.577.186.88.186a2.14 2.14 0 00.717-.114 1.845 1.845 0 001.024-.821 2.16 2.16 0 00.26-.659h-1.328a.24.24 0 01-.189-.086.27.27 0 01-.08-.2.283.283 0 01.166-.256.245.245 0 01.103-.02h1.649a.329.329 0 01.207.081.265.265 0 01.064.09.257.257 0 01.019.11 2.948 2.948 0 01-.264.972c-.14.289-.329.55-.558.771a2.543 2.543 0 01-1.782.704 2.748 2.748 0 01-1.433-.4 2.906 2.906 0 01-1.008-1.044 3.188 3.188 0 01-.285-.699 2.989 2.989 0 01-.097-.776c-.002-.261.031-.52.097-.772.064-.244.157-.479.277-.7.123-.215.271-.415.439-.594.172-.174.362-.326.568-.454.212-.13.44-.228.677-.295a2.64 2.64 0 01.761-.11c.376-.002.749.074 1.096.224.346.15.66.37.923.648a.251.251 0 01.063.09.242.242 0 01.02.11.282.282 0 01-.079.195.272.272 0 01-.189.087.248.248 0 01-.198-.087 2.235 2.235 0 00-.765-.517 2.225 2.225 0 00-.88-.177 2.265 2.265 0 00-1.601.676 2.332 2.332 0 00-.664 1.68z" fill="#7D7D7D"/>
  <path d="M133.002 77.466a3.016 3.016 0 01-1.543-.431 3.126 3.126 0 01-1.091-1.13 3.5 3.5 0 01-.304-.754 3.267 3.267 0 01-.105-.836 3.277 3.277 0 01.404-1.58 3.053 3.053 0 011.817-1.466 3.045 3.045 0 011.984.122c.378.162.72.402 1.007.704a.452.452 0 01.149.363.502.502 0 01-.488.504.46.46 0 01-.352-.15 2.06 2.06 0 00-1.068-.581 2.023 2.023 0 00-1.857.581 2.096 2.096 0 00-.439.677 2.117 2.117 0 00-.168.835c-.001.567.216 1.11.603 1.512.185.195.407.35.651.454.465.197.98.22 1.46.069a1.68 1.68 0 00.906-.74c.058-.1.108-.203.15-.31h-1.051a.468.468 0 01-.348-.154.503.503 0 01-.141-.359.526.526 0 01.146-.353.49.49 0 01.343-.15h1.649a.55.55 0 01.352.136.457.457 0 01.158.381 3.02 3.02 0 01-.29 1.063 2.79 2.79 0 01-1.474 1.398 2.724 2.724 0 01-1.06.195zm0-5.857c-.236 0-.471.034-.699.1a2.485 2.485 0 00-.624.272c-.193.12-.37.263-.528.427a2.74 2.74 0 00-.748 1.907c-.001.241.03.48.092.713a2.684 2.684 0 001.192 1.616c.194.12.403.211.621.273a2.536 2.536 0 001.601-.077c.266-.107.513-.26.73-.454.431-.42.698-.989.752-1.599a.09.09 0 00-.079-.036h-1.645l-.049.05.049.06h1.618l-.061.276a2.58 2.58 0 01-.286.727 2.13 2.13 0 01-.488.563 2.185 2.185 0 01-.656.358c-.578.184-1.2.156-1.759-.081a2.463 2.463 0 01-.792-.55 2.6 2.6 0 01-.532-.817 2.68 2.68 0 010-2.034c.129-.307.312-.586.541-.822a2.478 2.478 0 011.273-.694 2.43 2.43 0 011.432.144c.312.132.597.326.836.573l.233.158-.159-.154a.07.07 0 000-.045 2.502 2.502 0 00-.879-.636 2.493 2.493 0 00-.99-.218h.004z" fill="#7E7E7E"/>
  <path d="M138.245 77.19a.26.26 0 01-.18-.091.296.296 0 01-.07-.2v-5.176a.253.253 0 01.083-.205.272.272 0 01.198-.082h2.472a.254.254 0 01.194.083.282.282 0 01.058.094.29.29 0 01.016.11.282.282 0 01-.074.2.255.255 0 01-.194.082h-2.199v2.006h1.64a.258.258 0 01.253.169.306.306 0 01.001.216.272.272 0 01-.06.092.278.278 0 01-.194.077h-1.64v2.034h2.199a.255.255 0 01.194.082.275.275 0 01.057.09.25.25 0 01.017.105.282.282 0 01-.074.204.252.252 0 01-.194.082l-2.503.027z" fill="#7D7D7D"/>
  <path d="M140.774 77.407h-2.546a.51.51 0 01-.453-.518v-5.175a.493.493 0 01.154-.372.492.492 0 01.347-.142h2.472a.454.454 0 01.347.15.532.532 0 010 .722.476.476 0 01-.347.15h-2.001v1.58h1.42a.43.43 0 01.352.15.478.478 0 01.105.162.485.485 0 01.036.192.5.5 0 01-.305.468.467.467 0 01-.188.036h-1.42v1.58h2.001a.452.452 0 01.347.15.496.496 0 01.141.354.507.507 0 01-.141.363.436.436 0 01-.321.15zm-2.498-5.752a.082.082 0 00-.053 0v5.217a.105.105 0 000 .05v.24-.227h2.525c.044 0 .048-.032.048-.059l-.048-.05h-2.441v-2.488h1.86a.07.07 0 00.04 0l.154-.236-.158.159h-1.896v-2.489h2.441l.048-.054-.048-.059-2.472-.005z" fill="#7E7E7E"/>
  <path d="M143.959 72.567l-.44-.676a.265.265 0 01-.048-.137.333.333 0 01.101-.267.188.188 0 01.132-.05h.022l.088.027h.022l.022.027v.023l3.043 4.477v-4.332a.286.286 0 01.019-.109.288.288 0 01.258-.177.253.253 0 01.198.086c.05.054.077.126.075.2v5.185a.262.262 0 01-.066.182.262.262 0 01-.158.095h-.049a.272.272 0 01-.206-.086v-.027l-3.044-4.486v4.331a.272.272 0 11-.545 0v-5.112a.267.267 0 01.079-.2.26.26 0 01.193-.082h.022l.088.028a.227.227 0 01.075.095c.018.04.027.083.026.127l.093.858z" fill="#7D7D7D"/>
  <path d="M147.24 77.407a.48.48 0 01-.361-.154l-.044-.06-2.639-3.909v3.633a.51.51 0 01-.145.363.497.497 0 01-.695 0 .492.492 0 01-.145-.363v-5.176a.51.51 0 01.145-.364.486.486 0 01.348-.145h.149l.093.023.061.054.026.023a.46.46 0 01.097.123l2.639 3.868v-3.632a.533.533 0 01.145-.364.48.48 0 01.764.077.525.525 0 01.081.287v5.185a.506.506 0 01-.405.5l-.114.031zm-3.079-4.912l3.004 4.426c.006.01.015.019.025.024.01.006.021.009.032.008h.04v-5.221a.059.059 0 00.005-.023.058.058 0 00-.005-.023h-.075v5.095l-3.004-4.418-.022.132zm-.537 0v4.404l.053.054a.046.046 0 00.04 0v-4.3l-.093-.159zm.027-.818a.248.248 0 010 .055l.066.104-.04-.163-.026.004z" fill="#7E7E7E"/>
  <path d="M158.104 72.454a.29.29 0 01-.075.195.303.303 0 01-.198.086.252.252 0 01-.193-.082 2.279 2.279 0 00-1.628-.699c-.302 0-.602.063-.88.186a2.23 2.23 0 00-.727.502 2.29 2.29 0 00-.486.752 2.37 2.37 0 00-.176.908c-.004.311.055.62.171.908.11.28.269.535.471.753.205.217.448.391.717.514.284.128.591.193.901.19.301.007.6-.047.88-.159.288-.114.549-.29.765-.517a.287.287 0 01.194-.087.255.255 0 01.193.078.27.27 0 01.08.2.292.292 0 01-.075.2c-.27.279-.592.5-.946.648a2.915 2.915 0 01-1.073.21 2.6 2.6 0 01-.748-.11 2.83 2.83 0 01-.673-.29 2.813 2.813 0 01-1.011-1.045 3.034 3.034 0 01-.383-1.476 3.035 3.035 0 01.369-1.443c.122-.218.27-.42.44-.6.171-.174.362-.326.568-.453.214-.133.445-.235.686-.305.252-.077.515-.115.778-.113.367.001.73.077 1.069.222.352.15.672.37.941.65a.292.292 0 01.049.177z" fill="#7D7D7D"/>
  <path d="M156.001 77.466a2.997 2.997 0 01-.805-.113 3.092 3.092 0 01-.725-.318 3.17 3.17 0 01-1.091-1.13 3.285 3.285 0 01-.413-1.59 3.137 3.137 0 01.105-.813c.134-.512.393-.981.752-1.362.18-.197.386-.368.612-.508.23-.145.479-.257.738-.332a3.008 3.008 0 013.005.817.503.503 0 01.145.36.534.534 0 01-.137.353.523.523 0 01-.356.155.426.426 0 01-.352-.15 2.05 2.05 0 00-.67-.463 2.004 2.004 0 00-1.58 0 2.05 2.05 0 00-.67.463 2.2 2.2 0 00-.44.677c-.106.264-.16.548-.158.835-.001.277.052.552.153.808.104.254.253.485.44.681.192.205.423.367.678.477.255.11.529.163.805.159.261 0 .52-.048.765-.14.255-.102.487-.256.682-.455a.505.505 0 01.347-.15.49.49 0 01.497.509.52.52 0 01-.141.354 2.948 2.948 0 01-1.02.7c-.374.134-.77.194-1.166.176zm0-5.857c-.242 0-.484.035-.717.105a2.358 2.358 0 00-.633.281 2.66 2.66 0 00-.519.454c-.156.165-.29.35-.4.55a3.105 3.105 0 00-.251.64c-.058.226-.087.46-.088.694a2.79 2.79 0 00.356 1.362c.112.2.248.382.405.545a2.571 2.571 0 003.708-.004l.154-.236-.154.163h-.084a2.355 2.355 0 01-.835.568c-.301.116-.62.175-.942.172-.34.002-.677-.07-.989-.209a2.562 2.562 0 01-1.32-1.362 2.612 2.612 0 01-.189-.985 2.656 2.656 0 01.194-1.012c.127-.307.309-.586.536-.822a2.484 2.484 0 011.275-.704 2.447 2.447 0 012.275.717h.079v-.068a2.575 2.575 0 00-.88-.604 2.474 2.474 0 00-.967-.245h-.014z" fill="#7E7E7E"/>
  <path d="M163.976 71.618c.33.148.629.36.879.627.258.26.466.568.612.908.15.358.226.745.224 1.135 0 .264-.034.526-.101.781-.066.245-.163.48-.286.7a2.882 2.882 0 01-.44.594 2.97 2.97 0 01-.576.454c-.213.127-.44.225-.678.29a2.665 2.665 0 01-1.508 0 2.911 2.911 0 01-.677-.29 2.891 2.891 0 01-1.008-1.053 3.116 3.116 0 01-.286-.7 3.182 3.182 0 010-1.557 3.09 3.09 0 01.286-.695 2.73 2.73 0 01.44-.59 2.74 2.74 0 012.001-.858c.386.003.766.09 1.118.254zm-1.997.527a2.27 2.27 0 00-1.205 1.249c-.12.286-.182.595-.181.908.001.312.062.62.181.908a2.27 2.27 0 001.205 1.248 2.169 2.169 0 001.759 0c.27-.118.516-.287.726-.5a2.373 2.373 0 00.664-1.656 2.35 2.35 0 00-.176-.909 2.382 2.382 0 00-.453-.744 2.357 2.357 0 00-.726-.5 2.17 2.17 0 00-.879-.186 2.195 2.195 0 00-.915.182z" fill="#7D7D7D"/>
  <path d="M162.872 77.466a2.99 2.99 0 01-.814-.113 3.11 3.11 0 01-.73-.318 3.127 3.127 0 01-1.395-1.889 3.394 3.394 0 010-1.675 3.134 3.134 0 011.395-1.88 2.988 2.988 0 012.731-.182c.362.16.692.388.972.672a3.189 3.189 0 01.897 2.225 3.2 3.2 0 01-.897 2.234 3.017 3.017 0 01-1.346.813 3.04 3.04 0 01-.813.113zm0-5.852a2.478 2.478 0 00-1.32.368 2.67 2.67 0 00-.932.966 2.565 2.565 0 00-.26.645 2.72 2.72 0 00-.092.713 2.789 2.789 0 00.352 1.367c.113.2.249.383.404.55.409.42.942.69 1.515.766a2.544 2.544 0 001.652-.349c.195-.115.374-.257.532-.422.157-.164.295-.347.409-.545.111-.204.2-.42.264-.645.062-.235.093-.478.093-.722a2.686 2.686 0 00-.207-1.044 2.684 2.684 0 00-1.394-1.435 2.475 2.475 0 00-1.016-.213zm0 5.28a2.374 2.374 0 01-.981-.204 2.41 2.41 0 01-.792-.55 2.6 2.6 0 01-.532-.817 2.603 2.603 0 01-.198-1.017 2.554 2.554 0 01.198-1.003 2.6 2.6 0 01.532-.818 2.465 2.465 0 013.541 0c.226.236.408.513.536.818.13.317.196.659.194 1.003.002.35-.064.695-.194 1.017-.128.305-.31.582-.536.818-.228.233-.496.42-.792.549a2.372 2.372 0 01-.972.204h-.004zm0-4.708a1.994 1.994 0 00-.791.16 2.05 2.05 0 00-.67.462 2.163 2.163 0 00-.44.672 2.21 2.21 0 00-.124 1.238c.078.416.275.8.564 1.1.186.195.407.35.651.454a2.031 2.031 0 001.61 0 2.069 2.069 0 001.1-1.13 2.26 2.26 0 000-1.662 2.243 2.243 0 00-.44-.672 2.106 2.106 0 00-.66-.454 1.893 1.893 0 00-.796-.16l-.004-.008z" fill="#7E7E7E"/>
  <path d="M171.409 73.071c.002.197-.031.392-.097.577-.065.166-.158.32-.273.454a1.593 1.593 0 01-.937.554l1.263 2.084a.27.27 0 01.037.11.27.27 0 01-.015.117.265.265 0 01-.141.163.248.248 0 01-.202 0 .28.28 0 01-.163-.131l-1.386-2.33h-.919v2.194a.268.268 0 01-.079.2.273.273 0 01-.449-.092.29.29 0 01-.022-.109V71.71a.271.271 0 01.084-.2.255.255 0 01.193-.082h1.474a1.629 1.629 0 011.165.473c.154.15.275.333.358.534.082.202.124.418.122.637h-.013zm-2.833-1.085v2.152h1.201c.151.001.3-.028.44-.086.128-.057.246-.137.347-.236a1.103 1.103 0 00.313-.758c0-.146-.03-.29-.088-.423a1.07 1.07 0 00-.229-.34 1.086 1.086 0 00-.787-.31h-1.197z" fill="#7D7D7D"/>
  <path d="M171.123 77.407a.598.598 0 01-.15 0 .49.49 0 01-.277-.231l-1.319-2.22h-.576v1.965a.51.51 0 01-.146.364.497.497 0 01-.844-.364V71.71a.507.507 0 01.149-.368.5.5 0 01.348-.14h1.469c.249-.002.495.048.726.145.221.089.423.223.593.395a1.883 1.883 0 01.532 1.605c-.049.343-.19.665-.408.928a1.867 1.867 0 01-.761.54l1.108 1.817a.528.528 0 01-.06.6.47.47 0 01-.16.117.428.428 0 01-.224.06zm-2.82-5.752a.046.046 0 00-.021-.005.047.047 0 00-.022.004v5.227l.057.054a.045.045 0 00.039 0V74.48h1.263l1.451 2.438a.07.07 0 00.04.036h.044c.03-.036.035-.045 0-.072l-1.425-2.357.316-.064a1.37 1.37 0 001.113-1.38 1.405 1.405 0 00-.11-.558 1.425 1.425 0 00-.299-.454 1.427 1.427 0 00-.44-.3 1.466 1.466 0 00-.563-.109l-1.443-.005zm1.465 2.724h-1.412V71.74h1.421c.178-.003.354.031.519.1.156.06.298.153.418.272a1.277 1.277 0 01.387.926 1.31 1.31 0 01-.378.917c-.121.12-.261.217-.414.287a1.353 1.353 0 01-.532.122l-.009.014zm-.972-.454h.981c.12.001.24-.022.352-.068a1.03 1.03 0 00.277-.191.885.885 0 00.18-.272.81.81 0 00.066-.323.818.818 0 00-.528-.776.906.906 0 00-.347-.1h-.963l-.018 1.73z" fill="#7E7E7E"/>
  <path d="M174.448 74.706v2.193a.272.272 0 01-.168.26.266.266 0 01-.105.021.252.252 0 01-.193-.081.255.255 0 01-.084-.2v-5.19a.258.258 0 01.084-.2.26.26 0 01.193-.082h1.46a1.63 1.63 0 01.647.128c.195.077.373.194.524.343.15.149.271.327.356.524a1.668 1.668 0 01.007 1.273 1.609 1.609 0 01-.356.536c-.152.151-.333.27-.531.348a1.634 1.634 0 01-.647.127h-1.187zm0-2.725v2.153h1.192c.151 0 .3-.029.44-.087.128-.057.246-.137.347-.236.096-.1.174-.216.229-.345.053-.13.08-.271.079-.413a1.053 1.053 0 00-.664-.99 1.13 1.13 0 00-.44-.082h-1.183z" fill="#7D7D7D"/>
  <path d="M174.175 77.407a.473.473 0 01-.347-.145.497.497 0 01-.15-.363v-5.19a.508.508 0 01.15-.368.496.496 0 01.347-.14h1.461a1.85 1.85 0 01.725.145c.222.087.424.22.594.39a1.9 1.9 0 01.4.595 1.964 1.964 0 010 1.485 1.84 1.84 0 01-.994.976 1.93 1.93 0 01-.725.14h-.968V76.9a.528.528 0 01-.145.363.485.485 0 01-.348.145zm0-5.752a.047.047 0 00-.044 0v5.226l.057.054a.046.046 0 00.04 0V74.48h1.408c.192.002.384-.035.562-.11a1.345 1.345 0 00.739-.75c.076-.174.114-.365.11-.557a1.389 1.389 0 00-.11-.558 1.485 1.485 0 00-.299-.455 1.415 1.415 0 00-.44-.3 1.465 1.465 0 00-.562-.108l-1.461.013zm1.465 2.724h-1.412V71.74h1.403c.178-.003.354.031.519.1.156.06.298.153.418.272.117.117.213.256.281.409.068.163.102.34.102.517.002.174-.033.346-.102.504a1.275 1.275 0 01-.272.413c-.121.12-.261.217-.414.287a1.35 1.35 0 01-.523.122v.014zm-.972-.454h.972c.12.001.24-.022.352-.068a1.03 1.03 0 00.277-.191.885.885 0 00.18-.272.808.808 0 00.062-.323.797.797 0 00-.247-.6.92.92 0 00-.633-.245h-.963v1.699z" fill="#7E7E7E"/>
</svg>
